<mxfile host="app.diagrams.net" modified="2023-06-17T16:50:19.454Z" agent="Mozilla/5.0 (X11; Ubuntu; Linux x86_64; rv:109.0) Gecko/20100101 Firefox/114.0" etag="R-7WyfdWqTZdQ-PJTjrz" version="21.4.0" type="device">
  <diagram name="Page-1" id="10a91c8b-09ff-31b1-d368-03940ed4cc9e">
    <mxGraphModel dx="1434" dy="685" grid="1" gridSize="10" guides="1" tooltips="1" connect="1" arrows="1" fold="1" page="1" pageScale="1" pageWidth="1100" pageHeight="850" background="none" math="0" shadow="0">
      <root>
        <mxCell id="0" />
        <mxCell id="1" parent="0" />
        <mxCell id="jALM0ebqb3fD8H6m7I_R-2" style="edgeStyle=orthogonalEdgeStyle;rounded=0;orthogonalLoop=1;jettySize=auto;html=1;exitX=0;exitY=0.5;exitDx=0;exitDy=0;entryX=1;entryY=0.5;entryDx=0;entryDy=0;" parent="1" source="62893188c0fa7362-1" target="62893188c0fa7362-2" edge="1">
          <mxGeometry relative="1" as="geometry">
            <mxPoint x="330" y="260" as="targetPoint" />
          </mxGeometry>
        </mxCell>
        <mxCell id="62893188c0fa7362-1" value="Database" style="whiteSpace=wrap;html=1;rounded=1;shadow=1;labelBackgroundColor=none;strokeWidth=1;fontFamily=Verdana;fontSize=12;align=center;" parent="1" vertex="1">
          <mxGeometry x="490" y="220" width="120" height="60" as="geometry" />
        </mxCell>
        <mxCell id="jALM0ebqb3fD8H6m7I_R-1" style="edgeStyle=orthogonalEdgeStyle;rounded=0;orthogonalLoop=1;jettySize=auto;html=1;exitX=1;exitY=0.5;exitDx=0;exitDy=0;entryX=0;entryY=0.5;entryDx=0;entryDy=0;" parent="1" source="62893188c0fa7362-2" target="62893188c0fa7362-1" edge="1">
          <mxGeometry relative="1" as="geometry" />
        </mxCell>
        <mxCell id="jALM0ebqb3fD8H6m7I_R-4" style="edgeStyle=orthogonalEdgeStyle;rounded=0;orthogonalLoop=1;jettySize=auto;html=1;exitX=0.25;exitY=1;exitDx=0;exitDy=0;entryX=0.5;entryY=0;entryDx=0;entryDy=0;" parent="1" source="62893188c0fa7362-2" target="62893188c0fa7362-12" edge="1">
          <mxGeometry relative="1" as="geometry">
            <Array as="points">
              <mxPoint x="240" y="370" />
              <mxPoint x="120" y="370" />
            </Array>
          </mxGeometry>
        </mxCell>
        <mxCell id="jALM0ebqb3fD8H6m7I_R-9" style="edgeStyle=orthogonalEdgeStyle;rounded=0;orthogonalLoop=1;jettySize=auto;html=1;exitX=0.75;exitY=1;exitDx=0;exitDy=0;" parent="1" source="62893188c0fa7362-2" target="jALM0ebqb3fD8H6m7I_R-3" edge="1">
          <mxGeometry relative="1" as="geometry">
            <Array as="points">
              <mxPoint x="300" y="370" />
              <mxPoint x="420" y="370" />
            </Array>
          </mxGeometry>
        </mxCell>
        <mxCell id="jALM0ebqb3fD8H6m7I_R-11" style="edgeStyle=orthogonalEdgeStyle;rounded=0;orthogonalLoop=1;jettySize=auto;html=1;exitX=0.5;exitY=1;exitDx=0;exitDy=0;entryX=0.5;entryY=0;entryDx=0;entryDy=0;" parent="1" source="62893188c0fa7362-2" target="62893188c0fa7362-13" edge="1">
          <mxGeometry relative="1" as="geometry" />
        </mxCell>
        <mxCell id="62893188c0fa7362-2" value="&lt;span&gt;Server&lt;/span&gt;" style="whiteSpace=wrap;html=1;rounded=1;shadow=1;labelBackgroundColor=none;strokeWidth=1;fontFamily=Verdana;fontSize=12;align=center;" parent="1" vertex="1">
          <mxGeometry x="210" y="220" width="120" height="60" as="geometry" />
        </mxCell>
        <mxCell id="jALM0ebqb3fD8H6m7I_R-5" style="edgeStyle=orthogonalEdgeStyle;rounded=0;orthogonalLoop=1;jettySize=auto;html=1;exitX=0.5;exitY=0;exitDx=0;exitDy=0;entryX=0.25;entryY=1;entryDx=0;entryDy=0;" parent="1" source="62893188c0fa7362-12" target="62893188c0fa7362-2" edge="1">
          <mxGeometry relative="1" as="geometry">
            <Array as="points">
              <mxPoint x="120" y="370" />
              <mxPoint x="240" y="370" />
            </Array>
          </mxGeometry>
        </mxCell>
        <mxCell id="62893188c0fa7362-12" value="Interface Web do Cliente" style="whiteSpace=wrap;html=1;rounded=1;shadow=1;labelBackgroundColor=none;strokeWidth=1;fontFamily=Verdana;fontSize=12;align=center;" parent="1" vertex="1">
          <mxGeometry x="60" y="500" width="120" height="60" as="geometry" />
        </mxCell>
        <mxCell id="jALM0ebqb3fD8H6m7I_R-6" style="edgeStyle=orthogonalEdgeStyle;rounded=0;orthogonalLoop=1;jettySize=auto;html=1;exitX=0.5;exitY=0;exitDx=0;exitDy=0;entryX=0.5;entryY=1;entryDx=0;entryDy=0;" parent="1" source="62893188c0fa7362-13" target="62893188c0fa7362-2" edge="1">
          <mxGeometry relative="1" as="geometry" />
        </mxCell>
        <mxCell id="62893188c0fa7362-13" value="&lt;span&gt;Interface Web do Cliente&lt;br&gt;&lt;/span&gt;" style="whiteSpace=wrap;html=1;rounded=1;shadow=1;labelBackgroundColor=none;strokeWidth=1;fontFamily=Verdana;fontSize=12;align=center;" parent="1" vertex="1">
          <mxGeometry x="210" y="440" width="120" height="60" as="geometry" />
        </mxCell>
        <mxCell id="jALM0ebqb3fD8H6m7I_R-8" style="edgeStyle=orthogonalEdgeStyle;rounded=0;orthogonalLoop=1;jettySize=auto;html=1;exitX=0.5;exitY=0;exitDx=0;exitDy=0;entryX=0.75;entryY=1;entryDx=0;entryDy=0;" parent="1" source="jALM0ebqb3fD8H6m7I_R-3" target="62893188c0fa7362-2" edge="1">
          <mxGeometry relative="1" as="geometry">
            <mxPoint x="300" y="300" as="targetPoint" />
            <Array as="points">
              <mxPoint x="420" y="370" />
              <mxPoint x="300" y="370" />
            </Array>
          </mxGeometry>
        </mxCell>
        <mxCell id="jALM0ebqb3fD8H6m7I_R-3" value="Interface Web do Cliente" style="whiteSpace=wrap;html=1;rounded=1;shadow=1;labelBackgroundColor=none;strokeWidth=1;fontFamily=Verdana;fontSize=12;align=center;" parent="1" vertex="1">
          <mxGeometry x="360" y="500" width="120" height="60" as="geometry" />
        </mxCell>
        <mxCell id="jALM0ebqb3fD8H6m7I_R-12" value="&lt;div&gt;&lt;b&gt;Bando de Dados:&lt;/b&gt;&lt;b&gt;&lt;br&gt;&lt;/b&gt;&lt;/div&gt;&lt;div&gt;&lt;b&gt;MongoDB&lt;/b&gt;&lt;/div&gt;" style="text;html=1;align=center;verticalAlign=middle;resizable=0;points=[];autosize=1;strokeColor=none;fillColor=none;" parent="1" vertex="1">
          <mxGeometry x="495" y="170" width="120" height="40" as="geometry" />
        </mxCell>
        <mxCell id="jALM0ebqb3fD8H6m7I_R-15" value="&lt;b&gt;WebSockets&lt;/b&gt;" style="text;html=1;align=center;verticalAlign=middle;resizable=0;points=[];autosize=1;strokeColor=none;fillColor=none;" parent="1" vertex="1">
          <mxGeometry x="30" y="410" width="90" height="30" as="geometry" />
        </mxCell>
        <mxCell id="jALM0ebqb3fD8H6m7I_R-16" value="&lt;b&gt;WebSockets&lt;/b&gt;" style="text;html=1;align=center;verticalAlign=middle;resizable=0;points=[];autosize=1;strokeColor=none;fillColor=none;" parent="1" vertex="1">
          <mxGeometry x="225" y="380" width="90" height="30" as="geometry" />
        </mxCell>
        <mxCell id="jALM0ebqb3fD8H6m7I_R-18" value="&lt;b&gt;WebSockets&lt;/b&gt;" style="text;html=1;align=center;verticalAlign=middle;resizable=0;points=[];autosize=1;strokeColor=none;fillColor=none;" parent="1" vertex="1">
          <mxGeometry x="430" y="380" width="90" height="30" as="geometry" />
        </mxCell>
        <mxCell id="oJjyc3auWsRqx49h7ajU-2" value="Estrutura do Documento MongoDB" style="swimlane;fontStyle=0;childLayout=stackLayout;horizontal=1;startSize=30;horizontalStack=0;resizeParent=1;resizeParentMax=0;resizeLast=0;collapsible=1;marginBottom=0;whiteSpace=wrap;html=1;" parent="1" vertex="1">
          <mxGeometry x="790" y="250" width="140" height="90" as="geometry" />
        </mxCell>
        <mxCell id="oJjyc3auWsRqx49h7ajU-3" value="_id (String)" style="text;strokeColor=none;fillColor=none;align=left;verticalAlign=middle;spacingLeft=4;spacingRight=4;overflow=hidden;points=[[0,0.5],[1,0.5]];portConstraint=eastwest;rotatable=0;whiteSpace=wrap;html=1;" parent="oJjyc3auWsRqx49h7ajU-2" vertex="1">
          <mxGeometry y="30" width="140" height="30" as="geometry" />
        </mxCell>
        <mxCell id="oJjyc3auWsRqx49h7ajU-4" value="data (String)" style="text;strokeColor=none;fillColor=none;align=left;verticalAlign=middle;spacingLeft=4;spacingRight=4;overflow=hidden;points=[[0,0.5],[1,0.5]];portConstraint=eastwest;rotatable=0;whiteSpace=wrap;html=1;" parent="oJjyc3auWsRqx49h7ajU-2" vertex="1">
          <mxGeometry y="60" width="140" height="30" as="geometry" />
        </mxCell>
        <mxCell id="oJjyc3auWsRqx49h7ajU-8" value="&lt;font style=&quot;font-size: 14px;&quot;&gt;A estrutura de documentos no MongoDB, que corresponderá a cada&lt;br&gt;&amp;nbsp;documento no editor de texto, terá os seguintes parâmetros:&lt;/font&gt;" style="text;html=1;align=center;verticalAlign=middle;resizable=0;points=[];autosize=1;strokeColor=none;fillColor=none;" parent="1" vertex="1">
          <mxGeometry x="635" y="190" width="450" height="50" as="geometry" />
        </mxCell>
        <mxCell id="J8PiI1CjUBTtBoA0ENkN-1" value="&lt;font style=&quot;font-size: 14px;&quot;&gt;O servidor armazena informações como os clientes conectados para cada documento/arquivo.&lt;br&gt;Cada cliente possui uma interface web, mas não faz alterações locais; em vez disso, informa o servidor sobre as alterações.&lt;br&gt;O servidor obtém as alterações feitas na interface do usuário do cliente e envia um &quot;receive-changes&quot; para o cliente, para que ele possa atualizar sua interface do usuário.&lt;br&gt;Para lidar com o problema de concorrência, o servidor saberá em tempo real a posição do &quot;cursor/ponto de inserção&quot; para cada cliente.&lt;br&gt;O cliente possui uma variável SET_TIMEOUT_MS que é definida com 1 segundo do período para atualizar o conteúdo do documento no banco de dados.&lt;br&gt;O banco de dados é o MongoDB, que é baseado no conceito de banco de dados NoSQL, portanto os documentos serão representados como um dicionário/JSON.&lt;/font&gt;" style="text;html=1;align=center;verticalAlign=middle;resizable=0;points=[];autosize=1;strokeColor=none;fillColor=none;" parent="1" vertex="1">
          <mxGeometry x="15" y="50" width="1080" height="110" as="geometry" />
        </mxCell>
        <mxCell id="UHYDQzDD1O38qfzUXWCa-1" value="&lt;div&gt;&lt;b&gt;Servidor:&lt;/b&gt;&lt;/div&gt;&lt;div&gt;&lt;b&gt;NodeJS&lt;br&gt;&lt;/b&gt;&lt;/div&gt;" style="text;html=1;align=center;verticalAlign=middle;resizable=0;points=[];autosize=1;strokeColor=none;fillColor=none;" parent="1" vertex="1">
          <mxGeometry x="230" y="175" width="80" height="40" as="geometry" />
        </mxCell>
        <mxCell id="UHYDQzDD1O38qfzUXWCa-2" value="&lt;div&gt;&lt;b&gt;Cliente:&lt;/b&gt;&lt;/div&gt;&lt;div&gt;&lt;b&gt;ReactJS&lt;br&gt;&lt;/b&gt;&lt;/div&gt;" style="text;html=1;align=center;verticalAlign=middle;resizable=0;points=[];autosize=1;strokeColor=none;fillColor=none;" parent="1" vertex="1">
          <mxGeometry x="80" y="570" width="70" height="40" as="geometry" />
        </mxCell>
        <mxCell id="UHYDQzDD1O38qfzUXWCa-3" value="&lt;div&gt;&lt;b&gt;Cliente:&lt;/b&gt;&lt;/div&gt;&lt;div&gt;&lt;b&gt;ReactJS&lt;br&gt;&lt;/b&gt;&lt;/div&gt;" style="text;html=1;align=center;verticalAlign=middle;resizable=0;points=[];autosize=1;strokeColor=none;fillColor=none;" parent="1" vertex="1">
          <mxGeometry x="235" y="510" width="70" height="40" as="geometry" />
        </mxCell>
        <mxCell id="UHYDQzDD1O38qfzUXWCa-4" value="&lt;div&gt;&lt;b&gt;Cliente:&lt;/b&gt;&lt;/div&gt;&lt;div&gt;&lt;b&gt;ReactJS&lt;br&gt;&lt;/b&gt;&lt;/div&gt;" style="text;html=1;align=center;verticalAlign=middle;resizable=0;points=[];autosize=1;strokeColor=none;fillColor=none;" parent="1" vertex="1">
          <mxGeometry x="385" y="570" width="70" height="40" as="geometry" />
        </mxCell>
      </root>
    </mxGraphModel>
  </diagram>
</mxfile>
